<?xml version="1.0" standalone="no"?>
<!DOCTYPE svg PUBLIC "-//W3C//DTD SVG 20010904//EN"
 "http://www.w3.org/TR/2001/REC-SVG-20010904/DTD/svg10.dtd">
<svg version="1.0" xmlns="http://www.w3.org/2000/svg"
 width="512.000000pt" height="512.000000pt" viewBox="0 0 512.000000 512.000000"
 preserveAspectRatio="xMidYMid meet">
<metadata>
Created by potrace 1.11, written by Peter Selinger 2001-2013
</metadata>
<g transform="translate(0.000000,512.000000) scale(0.100000,-0.100000)"
fill="#000000" stroke="none">
<path d="M0 2560 l0 -2560 2560 0 2560 0 0 2560 0 2560 -2560 0 -2560 0 0
-2560z m5005 1050 c6 -9 -15 -64 -73 -190 -24 -53 -85 -192 -177 -405 -7 -16
-33 -75 -58 -130 -25 -55 -52 -118 -61 -139 -16 -37 -17 -38 -35 -22 -10 9
-60 82 -111 162 -51 79 -96 144 -101 144 -4 0 -29 -13 -56 -29 -104 -63 -470
-280 -503 -299 -19 -11 -93 -54 -165 -97 -71 -43 -143 -85 -160 -95 -16 -9
-77 -45 -135 -80 -58 -35 -119 -71 -136 -80 -16 -10 -109 -65 -207 -123 -97
-58 -185 -111 -197 -117 -17 -9 -30 -2 -97 53 -84 68 -172 140 -350 285 l-114
93 -97 -62 c-53 -34 -146 -94 -207 -134 -60 -40 -175 -114 -254 -166 -80 -52
-214 -139 -298 -194 -84 -55 -208 -136 -275 -179 -303 -196 -385 -250 -410
-267 -25 -17 -50 -19 -302 -19 -160 0 -277 4 -281 9 -7 13 32 39 603 411 166
108 432 281 582 379 25 16 126 82 225 147 99 65 209 136 245 159 36 24 158
103 271 178 l207 135 95 -77 c52 -42 175 -141 272 -220 l178 -143 36 19 c44
25 524 308 566 334 42 27 515 307 660 392 66 38 121 70 123 72 2 1 -17 31 -40
66 -84 123 -146 227 -141 233 11 10 971 7 978 -4z m-552 -793 c41 -62 92 -141
115 -177 l42 -64 -2 -526 -3 -525 -240 0 -240 0 0 635 0 634 42 29 c76 51 196
116 205 111 4 -3 41 -55 81 -117z m-415 -693 l-3 -599 -240 0 -240 0 -3 466
-2 467 122 72 c68 40 175 104 238 141 63 38 118 65 122 61 5 -5 7 -278 6 -608z
m-1710 280 l52 -46 -2 -416 -3 -417 -240 0 -240 0 0 345 0 345 175 117 c96 64
182 117 190 117 9 1 39 -20 68 -45z m1157 -440 l0 -439 -240 0 -240 0 0 305 0
305 120 73 c66 40 129 77 140 82 11 5 61 34 110 64 50 30 95 54 100 52 6 -2
10 -158 10 -442z m-843 184 c86 -70 160 -128 164 -128 4 0 29 14 57 31 27 16
56 28 63 25 12 -5 14 -52 12 -278 l-3 -273 -245 0 -245 0 -3 369 c-2 368 1
407 32 389 6 -4 82 -64 168 -135z m-817 -309 l0 -314 -240 0 -240 0 -3 165 -2
165 122 81 c68 45 164 107 213 139 50 32 99 64 110 71 11 7 25 12 30 10 6 -2
10 -116 10 -317z m-560 -180 l0 -134 -199 -3 c-110 -1 -204 2 -209 7 -5 5 19
26 60 52 37 24 126 83 198 131 71 47 135 85 140 84 6 -2 10 -56 10 -137z"/>
</g>
</svg>
