<svg xmlns="http://www.w3.org/2000/svg" xmlns:xlink="http://www.w3.org/1999/xlink">
  <symbol id="icon-github" viewBox="0 0 496 512">
    <path fill="currentColor" d="M165.9 397.4c0 2-2.3 3.6-5.2 3.6-3.3.3-5.6-1.3-5.6-3.6 0-2 2.3-3.6 5.2-3.6 3-.3 5.6 1.3 5.6 3.6zm-31.1-4.5c-.7 2 1.3 4.3 4.3 4.9 2.6 1 5.6 0 6.2-2s-1.3-4.3-4.3-5.2c-2.6-.7-5.5.3-6.2 2.3zm44.2-1.7c-2.9.7-4.9 2.6-4.6 4.9.3 2 2.9 3.3 5.9 2.6 2.9-.7 4.9-2.6 4.6-4.6-.3-1.9-3-3.2-5.9-2.9zM244.8 8C106.1 8 0 113.3 0 252c0 110.9 69.8 205.8 169.5 239.2 12.8 2.3 17.3-5.6 17.3-12.1 0-6.2-.3-40.4-.3-61.4 0 0-70 15-84.7-29.8 0 0-11.4-29.1-27.8-36.6 0 0-22.9-15.7 1.6-15.4 0 0 24.9 2 38.6 25.8 21.9 38.6 58.6 27.5 72.9 20.9 2.3-16 8.8-27.1 16-33.7-55.9-6.2-112.3-14.3-112.3-110.5 0-27.5 7.6-41.3 23.6-58.9-2.6-6.5-11.1-33.3 2.6-67.9 20.9-6.5 69 27 69 27 20-5.6 41.5-8.5 62.8-8.5s42.8 2.9 62.8 8.5c0 0 48.1-33.6 69-27 13.7 34.7 5.2 61.4 2.6 67.9 16 17.7 25.8 31.5 25.8 58.9 0 96.5-58.9 104.2-114.8 110.5 9.2 7.9 17 22.9 17 46.4 0 33.7-.3 75.4-.3 83.6 0 6.5 4.6 14.4 17.3 12.1C428.2 457.8 496 362.9 496 252 496 113.3 383.5 8 244.8 8zM97.2 352.9c-1.3 1-1 3.3.7 5.2 1.6 1.6 3.9 2.3 5.2 1 1.3-1 1-3.3-.7-5.2-1.6-1.6-3.9-2.3-5.2-1zm-10.8-8.1c-.7 1.3.3 2.9 2.3 3.9 1.6 1 3.6.7 4.3-.7.7-1.3-.3-2.9-2.3-3.9-2-.6-3.6-.3-4.3.7zm32.4 35.6c-1.6 1.3-1 4.3 1.3 6.2 2.3 2.3 5.2 2.6 6.5 1 1.3-1.3.7-4.3-1.3-6.2-2.2-2.3-5.2-2.6-6.5-1zm-11.4-14.7c-1.6 1-1.6 3.6 0 5.9 1.6 2.3 4.3 3.3 5.6 2.3 1.6-1.3 1.6-3.9 0-6.2-1.4-2.3-4-3.3-5.6-2z"/>
  </symbol>
  <symbol id="icon-gumroad" viewBox="0 0 24 24">
    <path d="M15.826 15.069a1.018 1.018 0 11-.001 2.036 1.018 1.018 0 010-2.036zM21.327 1.11a1.018 1.018 0 11.001 2.036 1.018 1.018 0 010-2.036zM3.322 3.107h16.116a2.13 2.13 0 001.89 1.151 2.132 2.132 0 002.129-2.13A2.131 2.131 0 0021.327 0c-.89 0-1.654.55-1.97 1.329H3.321C1.764 1.329.543 2.51.543 4.019v17.156C.543 22.706 1.816 24 3.322 24h17.155c1.51 0 2.738-1.267 2.738-2.825V10.998c0-1.532-1.228-2.78-2.738-2.78H10.3c-1.553 0-2.866 1.274-2.866 2.78v3.198c0 1.484 1.286 2.691 2.866 2.691h3.554a2.132 2.132 0 001.972 1.329c1.174 0 2.129-.956 2.129-2.13s-.955-2.129-2.13-2.129a2.13 2.13 0 00-1.889 1.152H10.3c-.523 0-1.088-.349-1.088-.913v-3.198c0-.524.519-1 1.088-1h10.177c.538 0 .96.439.96 1v10.177c0 .567-.44 1.047-.96 1.047H3.322c-.533 0-1-.49-1-1.047V4.02c0-.52.43-.912 1-.912"/>
  </symbol>
  <symbol id="icon-product-hunt" viewBox="0 0 512 512">
    <path fill="currentColor" d="M326.3 218.8c0 20.5-16.7 37.2-37.2 37.2h-70.3v-74.4h70.3c20.5 0 37.2 16.7 37.2 37.2zM504 256c0 137-111 248-248 248S8 393 8 256 119 8 256 8s248 111 248 248zm-128.1-37.2c0-47.9-38.9-86.8-86.8-86.8H169.2v248h49.6v-74.4h70.3c47.9 0 86.8-38.9 86.8-86.8z"/>
  </symbol>
</svg>